<svg xmlns="http://www.w3.org/2000/svg" width="22" height="38"><defs><filter id="a"><feFlood flood-color="#665F60" flood-opacity="1" result="floodOut"/><feComposite operator="atop" in="floodOut" in2="SourceGraphic" result="compOut"/><feBlend in="compOut" in2="SourceGraphic"/></filter></defs><g filter="url(#a)"><path fill-rule="evenodd" fill="#E6E6E6" d="M21.997 18.999c-.002.034-.002.066-.007.099-.011.356-.168.7-.472.891L1.461 37.856c-.468.295-1.067.12-1.338-.39-.271-.51-.11-1.163.358-1.457l19.096-17.01L.481 1.989C.013 1.695-.148 1.042.123.532c.271-.51.87-.684 1.338-.39l20.057 17.866c.304.192.461.536.472.892.005.033.005.065.007.099z"/></g></svg>