<svg xmlns="http://www.w3.org/2000/svg" width="22" height="38"><defs><filter id="a"><feFlood flood-color="#665F60" flood-opacity="1" result="floodOut"/><feComposite operator="atop" in="floodOut" in2="SourceGraphic" result="compOut"/><feBlend in="compOut" in2="SourceGraphic"/></filter></defs><g filter="url(#a)"><path fill-rule="evenodd" fill="#E6E6E6" d="M21.518 1.989L2.423 18.999l19.095 17.01c.469.294.629.947.359 1.457-.271.51-.87.685-1.338.39L.482 19.989c-.305-.191-.462-.535-.472-.891-.005-.033-.005-.065-.007-.099.002-.034.002-.066.007-.099.01-.356.167-.7.472-.892L20.539.142c.468-.294 1.067-.12 1.338.39.27.51.11 1.163-.359 1.457z"/></g></svg>