<svg 
 xmlns="http://www.w3.org/2000/svg"
 xmlns:xlink="http://www.w3.org/1999/xlink"
 width="22px" height="38px">
<path fill-rule="evenodd"  fill="rgb(230, 230, 230)"
 d="M21.518,1.990 L2.423,18.999 L21.518,36.009 C21.987,36.303 22.147,36.956 21.877,37.465 C21.606,37.976 21.007,38.151 20.539,37.856 L0.482,19.989 C0.177,19.798 0.020,19.454 0.009,19.098 C0.005,19.064 0.005,19.033 0.003,18.999 C0.005,18.965 0.005,18.933 0.010,18.900 C0.020,18.544 0.177,18.200 0.482,18.008 L20.539,0.142 C21.007,-0.153 21.606,0.022 21.877,0.533 C22.147,1.042 21.987,1.695 21.518,1.990 Z"/>
</svg>