<svg 
 xmlns="http://www.w3.org/2000/svg"
 xmlns:xlink="http://www.w3.org/1999/xlink"
 width="22px" height="38px">
<path fill-rule="evenodd"  fill="rgb(230, 230, 230)"
 d="M21.997,18.999 C21.995,19.033 21.995,19.064 21.990,19.098 C21.979,19.454 21.822,19.798 21.518,19.989 L1.461,37.856 C0.993,38.151 0.394,37.976 0.123,37.465 C-0.148,36.956 0.013,36.303 0.481,36.009 L19.576,18.999 L0.481,1.990 C0.013,1.695 -0.148,1.042 0.123,0.533 C0.394,0.022 0.993,-0.153 1.461,0.142 L21.518,18.008 C21.822,18.200 21.979,18.544 21.990,18.900 C21.995,18.933 21.995,18.965 21.997,18.999 Z"/>
</svg>